<?xml version="1.0" standalone="no"?>
<!DOCTYPE svg PUBLIC "-//W3C//DTD SVG 20010904//EN"
 "http://www.w3.org/TR/2001/REC-SVG-20010904/DTD/svg10.dtd">
<svg version="1.0" xmlns="http://www.w3.org/2000/svg"
 width="600.000000pt" height="600.000000pt" viewBox="0 0 600.000000 600.000000"
 preserveAspectRatio="xMidYMid meet">
<metadata>
Created by potrace 1.14, written by Peter Selinger 2001-2017
</metadata>
<g transform="translate(0.000000,600.000000) scale(0.100000,-0.100000)"
fill="#000000" stroke="none">
<path d="M2036 5283 c-1 -1 -27 -5 -57 -8 -29 -4 -60 -8 -68 -11 -8 -3 -30 -7
-50 -10 -50 -7 -205 -61 -266 -92 -211 -105 -384 -284 -487 -502 -20 -41 -43
-93 -53 -115 -21 -48 -73 -226 -81 -275 -3 -19 -8 -38 -9 -41 -2 -3 -7 -28
-10 -55 -4 -27 -8 -56 -10 -64 -3 -8 -7 -42 -11 -75 -3 -33 -8 -73 -10 -90 -2
-16 -6 -97 -9 -180 -3 -82 -8 -168 -11 -190 -13 -100 -78 -179 -192 -232 -92
-43 -177 -61 -317 -69 -60 -3 -121 -7 -135 -9 -14 -1 -30 -3 -37 -4 -9 -1 -12
-67 -12 -266 l1 -264 186 0 c103 -1 198 -3 212 -6 14 -3 41 -8 60 -11 19 -3
71 -23 115 -44 126 -61 218 -162 298 -330 38 -80 93 -260 102 -338 3 -26 7
-56 9 -67 14 -75 24 -198 31 -385 6 -181 17 -241 58 -330 62 -137 174 -250
334 -337 71 -39 165 -80 203 -88 8 -2 35 -11 59 -19 42 -15 131 -32 216 -42
22 -2 50 -7 63 -9 18 -4 22 -1 23 17 0 13 2 30 3 38 3 15 12 91 22 190 3 30 9
81 13 112 8 62 4 68 -44 68 -85 0 -258 75 -314 135 -73 79 -77 96 -86 346 -3
85 -7 166 -10 180 -2 13 -6 49 -9 79 -6 48 -28 184 -40 245 -46 231 -166 491
-293 637 -78 89 -206 198 -232 198 -5 0 -11 3 -13 8 -1 4 -20 16 -40 26 -21
11 -38 22 -38 25 0 3 17 16 38 28 137 81 254 228 296 374 22 74 25 102 31 281
9 261 27 403 72 568 33 120 109 296 139 321 8 6 14 17 14 23 0 21 135 141 196
173 73 39 162 63 247 67 l62 3 3 210 2 210 -81 -1 c-44 0 -82 -2 -83 -3z"/>
<path d="M3805 5217 c-4 -39 -9 -83 -10 -97 -22 -188 -25 -255 -10 -255 80 -5
218 -48 281 -87 58 -37 109 -99 128 -154 10 -33 17 -101 21 -209 3 -88 7 -180
10 -205 3 -25 7 -65 9 -90 3 -25 7 -60 10 -78 4 -17 8 -47 12 -64 22 -130 67
-299 103 -383 59 -139 129 -261 196 -341 44 -52 122 -128 157 -152 13 -9 29
-22 37 -29 7 -8 42 -30 77 -50 35 -21 64 -40 64 -43 -1 -3 -22 -18 -48 -35
-196 -123 -306 -315 -312 -542 -5 -196 -14 -339 -26 -423 -18 -124 -21 -140
-46 -240 -12 -47 -25 -89 -30 -95 -4 -5 -8 -15 -8 -23 0 -8 -14 -44 -32 -81
-124 -261 -284 -379 -538 -396 -19 -2 -41 -3 -47 -4 -10 -1 -13 -50 -13 -210
l0 -209 88 4 c228 11 475 82 617 179 17 11 32 23 33 28 2 4 8 7 14 7 27 0 157
131 255 256 36 47 140 263 167 349 38 118 76 295 92 420 3 28 8 61 10 75 3 23
10 142 18 352 7 152 86 245 258 302 81 27 120 33 253 42 105 8 156 11 171 13
8 1 11 79 12 266 l0 265 -172 1 c-199 0 -241 4 -316 25 -153 44 -283 162 -373
341 -28 54 -89 248 -103 323 -4 25 -8 47 -9 50 -20 84 -30 201 -39 470 -6 150
-21 223 -67 316 -83 170 -242 300 -477 393 -66 26 -231 68 -302 76 -30 3 -67
8 -81 11 -27 4 -27 3 -34 -69z"/>
<path d="M2352 3350 c2 -626 1 -632 -43 -706 -33 -54 -117 -75 -203 -50 -58
17 -122 76 -153 141 -9 19 -20 35 -25 35 -4 0 -57 -35 -117 -77 l-110 -78 16
-25 c10 -14 23 -37 31 -53 20 -40 112 -130 163 -160 86 -51 156 -68 279 -68
189 -1 329 80 405 234 59 121 63 177 59 782 -1 292 -3 550 -3 575 l-1 45 -150
0 -150 0 2 -595z"/>
<path d="M2949 3912 c-1 -64 2 -1137 4 -1362 l2 -215 143 2 c79 0 146 3 149 7
3 3 6 145 5 316 l-1 310 93 0 93 0 148 -257 c82 -142 155 -269 162 -283 8 -14
22 -38 32 -55 l18 -30 171 -3 c95 -1 172 -1 172 2 0 6 -159 275 -181 308 -11
15 -19 29 -19 32 0 2 -28 51 -61 108 -34 57 -73 123 -87 148 -13 25 -28 49
-33 55 -15 16 -11 21 48 51 114 57 205 175 233 300 15 64 14 199 -1 260 -43
177 -178 291 -389 330 -19 3 -185 8 -367 10 l-333 3 -1 -37z m611 -235 c150
-31 195 -81 191 -219 -1 -52 -29 -124 -58 -150 -30 -26 -80 -48 -136 -59 -52
-10 -293 -16 -302 -8 -6 7 -8 426 -2 436 6 9 262 9 307 0z"/>
</g>
</svg>
